G04 EAGLE Gerber RS-274X export*
G75*
%MOMM*%
%FSLAX34Y34*%
%LPD*%
%INSilkscreen Top*%
%IPPOS*%
%AMOC8*
5,1,8,0,0,1.08239X$1,22.5*%
G01*
G04 Define Apertures*
%ADD10C,0.152400*%
G36*
X77025Y298818D02*
X76688Y298827D01*
X76368Y298856D01*
X76065Y298903D01*
X75778Y298969D01*
X75508Y299053D01*
X75255Y299157D01*
X75018Y299279D01*
X74798Y299420D01*
X74596Y299579D01*
X74413Y299755D01*
X74250Y299948D01*
X74106Y300157D01*
X73982Y300384D01*
X73877Y300627D01*
X73792Y300887D01*
X73726Y301164D01*
X75001Y301311D01*
X75120Y300968D01*
X75279Y300671D01*
X75477Y300419D01*
X75714Y300213D01*
X75990Y300053D01*
X76305Y299939D01*
X76659Y299870D01*
X77053Y299847D01*
X77300Y299857D01*
X77533Y299886D01*
X77753Y299934D01*
X77958Y300001D01*
X78150Y300087D01*
X78328Y300192D01*
X78492Y300317D01*
X78643Y300460D01*
X78778Y300621D01*
X78894Y300795D01*
X78993Y300984D01*
X79074Y301188D01*
X79137Y301406D01*
X79181Y301638D01*
X79208Y301884D01*
X79217Y302145D01*
X79208Y302372D01*
X79181Y302588D01*
X79136Y302793D01*
X79073Y302987D01*
X78992Y303170D01*
X78892Y303341D01*
X78775Y303501D01*
X78639Y303651D01*
X78489Y303785D01*
X78325Y303902D01*
X78149Y304001D01*
X77961Y304081D01*
X77760Y304144D01*
X77546Y304189D01*
X77320Y304216D01*
X77081Y304225D01*
X76830Y304215D01*
X76587Y304185D01*
X76354Y304134D01*
X76129Y304064D01*
X75908Y303969D01*
X75687Y303847D01*
X75467Y303696D01*
X75246Y303517D01*
X74013Y303517D01*
X74343Y308826D01*
X79953Y308826D01*
X79953Y307755D01*
X75491Y307755D01*
X75302Y304624D01*
X75513Y304772D01*
X75737Y304900D01*
X75973Y305008D01*
X76221Y305097D01*
X76482Y305166D01*
X76756Y305215D01*
X77042Y305245D01*
X77340Y305254D01*
X77695Y305241D01*
X78032Y305201D01*
X78350Y305134D01*
X78649Y305041D01*
X78930Y304921D01*
X79193Y304774D01*
X79437Y304600D01*
X79662Y304400D01*
X79865Y304178D01*
X80040Y303940D01*
X80189Y303686D01*
X80311Y303416D01*
X80405Y303129D01*
X80473Y302827D01*
X80513Y302508D01*
X80527Y302173D01*
X80512Y301793D01*
X80469Y301433D01*
X80396Y301095D01*
X80295Y300777D01*
X80164Y300480D01*
X80005Y300204D01*
X79816Y299949D01*
X79599Y299714D01*
X79356Y299504D01*
X79090Y299322D01*
X78802Y299168D01*
X78492Y299042D01*
X78159Y298944D01*
X77803Y298874D01*
X77425Y298832D01*
X77025Y298818D01*
G37*
G36*
X86598Y298958D02*
X85211Y298958D01*
X81184Y308826D01*
X82592Y308826D01*
X85323Y301879D01*
X85911Y300135D01*
X86500Y301879D01*
X89217Y308826D01*
X90625Y308826D01*
X86598Y298958D01*
G37*
G36*
X212407Y299580D02*
X212070Y299589D01*
X211750Y299618D01*
X211447Y299665D01*
X211160Y299731D01*
X210890Y299815D01*
X210637Y299919D01*
X210400Y300041D01*
X210180Y300182D01*
X209978Y300341D01*
X209795Y300517D01*
X209632Y300710D01*
X209488Y300919D01*
X209364Y301146D01*
X209259Y301389D01*
X209174Y301649D01*
X209108Y301926D01*
X210383Y302073D01*
X210502Y301730D01*
X210661Y301433D01*
X210859Y301181D01*
X211096Y300975D01*
X211372Y300815D01*
X211687Y300701D01*
X212041Y300632D01*
X212435Y300609D01*
X212682Y300619D01*
X212915Y300648D01*
X213135Y300696D01*
X213340Y300763D01*
X213532Y300849D01*
X213710Y300954D01*
X213874Y301079D01*
X214025Y301222D01*
X214160Y301383D01*
X214276Y301557D01*
X214375Y301746D01*
X214456Y301950D01*
X214519Y302168D01*
X214563Y302400D01*
X214590Y302646D01*
X214599Y302907D01*
X214590Y303134D01*
X214563Y303350D01*
X214518Y303555D01*
X214455Y303749D01*
X214374Y303932D01*
X214274Y304103D01*
X214157Y304263D01*
X214021Y304413D01*
X213871Y304547D01*
X213707Y304664D01*
X213531Y304763D01*
X213343Y304843D01*
X213142Y304906D01*
X212928Y304951D01*
X212702Y304978D01*
X212463Y304987D01*
X212212Y304977D01*
X211969Y304947D01*
X211736Y304896D01*
X211511Y304826D01*
X211290Y304731D01*
X211069Y304609D01*
X210849Y304458D01*
X210628Y304279D01*
X209395Y304279D01*
X209725Y309588D01*
X215335Y309588D01*
X215335Y308517D01*
X210873Y308517D01*
X210684Y305386D01*
X210895Y305534D01*
X211119Y305662D01*
X211355Y305770D01*
X211603Y305859D01*
X211864Y305928D01*
X212138Y305977D01*
X212424Y306007D01*
X212722Y306016D01*
X213077Y306003D01*
X213414Y305963D01*
X213732Y305896D01*
X214031Y305803D01*
X214312Y305683D01*
X214575Y305536D01*
X214819Y305362D01*
X215044Y305162D01*
X215247Y304940D01*
X215422Y304702D01*
X215571Y304448D01*
X215693Y304178D01*
X215787Y303891D01*
X215855Y303589D01*
X215895Y303270D01*
X215909Y302935D01*
X215894Y302555D01*
X215851Y302195D01*
X215778Y301857D01*
X215677Y301539D01*
X215546Y301242D01*
X215387Y300966D01*
X215198Y300711D01*
X214981Y300476D01*
X214738Y300266D01*
X214472Y300084D01*
X214184Y299930D01*
X213874Y299804D01*
X213541Y299706D01*
X213185Y299636D01*
X212807Y299594D01*
X212407Y299580D01*
G37*
G36*
X221980Y299720D02*
X220593Y299720D01*
X216566Y309588D01*
X217974Y309588D01*
X220705Y302641D01*
X221293Y300897D01*
X221882Y302641D01*
X224599Y309588D01*
X226007Y309588D01*
X221980Y299720D01*
G37*
G36*
X121872Y298958D02*
X118181Y298958D01*
X118181Y308826D01*
X121444Y308826D01*
X122053Y308807D01*
X122627Y308748D01*
X123164Y308650D01*
X123665Y308512D01*
X124131Y308335D01*
X124561Y308119D01*
X124956Y307864D01*
X125314Y307569D01*
X125633Y307238D01*
X125910Y306874D01*
X126144Y306477D01*
X126336Y306047D01*
X126485Y305583D01*
X126591Y305087D01*
X126655Y304557D01*
X126676Y303994D01*
X126667Y303618D01*
X126639Y303254D01*
X126593Y302902D01*
X126527Y302562D01*
X126444Y302234D01*
X126341Y301918D01*
X126220Y301614D01*
X126081Y301322D01*
X125924Y301044D01*
X125752Y300783D01*
X125564Y300538D01*
X125361Y300311D01*
X125143Y300100D01*
X124908Y299905D01*
X124658Y299728D01*
X124393Y299567D01*
X124115Y299425D01*
X123826Y299301D01*
X123526Y299196D01*
X123216Y299110D01*
X122896Y299044D01*
X122565Y298996D01*
X122224Y298968D01*
X121872Y298958D01*
G37*
%LPC*%
G36*
X121718Y300030D02*
X121985Y300037D01*
X122244Y300059D01*
X122495Y300097D01*
X122737Y300149D01*
X122972Y300216D01*
X123198Y300297D01*
X123416Y300394D01*
X123626Y300506D01*
X123826Y300631D01*
X124014Y300770D01*
X124190Y300922D01*
X124354Y301087D01*
X124506Y301265D01*
X124646Y301457D01*
X124774Y301661D01*
X124890Y301879D01*
X124994Y302108D01*
X125083Y302347D01*
X125159Y302596D01*
X125221Y302856D01*
X125269Y303125D01*
X125304Y303405D01*
X125325Y303694D01*
X125331Y303994D01*
X125316Y304439D01*
X125269Y304857D01*
X125190Y305247D01*
X125080Y305611D01*
X124939Y305947D01*
X124766Y306256D01*
X124562Y306537D01*
X124326Y306792D01*
X124061Y307017D01*
X123768Y307213D01*
X123446Y307379D01*
X123096Y307514D01*
X122719Y307619D01*
X122313Y307695D01*
X121879Y307740D01*
X121416Y307755D01*
X119518Y307755D01*
X119518Y300030D01*
X121718Y300030D01*
G37*
%LPD*%
G36*
X109028Y298958D02*
X107837Y298958D01*
X107837Y308826D01*
X109392Y308826D01*
X114729Y300366D01*
X114666Y301549D01*
X114645Y302355D01*
X114645Y308826D01*
X115849Y308826D01*
X115849Y298958D01*
X114238Y298958D01*
X108957Y307363D01*
X108993Y306683D01*
X109028Y305514D01*
X109028Y298958D01*
G37*
G36*
X101198Y298818D02*
X100818Y298828D01*
X100451Y298856D01*
X100097Y298905D01*
X99757Y298972D01*
X99430Y299059D01*
X99117Y299165D01*
X98816Y299290D01*
X98530Y299434D01*
X98258Y299597D01*
X98002Y299776D01*
X97764Y299973D01*
X97541Y300186D01*
X97335Y300417D01*
X97146Y300664D01*
X96973Y300928D01*
X96817Y301210D01*
X96679Y301506D01*
X96558Y301815D01*
X96457Y302137D01*
X96373Y302471D01*
X96309Y302819D01*
X96262Y303179D01*
X96235Y303552D01*
X96225Y303938D01*
X96246Y304521D01*
X96306Y305071D01*
X96407Y305587D01*
X96548Y306069D01*
X96729Y306517D01*
X96950Y306930D01*
X97212Y307311D01*
X97514Y307657D01*
X97853Y307965D01*
X98224Y308233D01*
X98627Y308459D01*
X99064Y308644D01*
X99533Y308788D01*
X100034Y308891D01*
X100568Y308953D01*
X101135Y308973D01*
X101535Y308965D01*
X101916Y308939D01*
X102278Y308896D01*
X102620Y308835D01*
X102943Y308757D01*
X103247Y308662D01*
X103531Y308550D01*
X103796Y308420D01*
X104045Y308271D01*
X104278Y308102D01*
X104497Y307912D01*
X104702Y307700D01*
X104891Y307469D01*
X105066Y307216D01*
X105227Y306942D01*
X105372Y306648D01*
X104098Y306270D01*
X103868Y306662D01*
X103738Y306836D01*
X103598Y306997D01*
X103448Y307143D01*
X103288Y307275D01*
X103118Y307392D01*
X102939Y307496D01*
X102748Y307586D01*
X102547Y307664D01*
X102334Y307730D01*
X102109Y307785D01*
X101874Y307827D01*
X101627Y307857D01*
X101369Y307875D01*
X101100Y307881D01*
X100685Y307865D01*
X100296Y307816D01*
X99932Y307736D01*
X99592Y307623D01*
X99278Y307477D01*
X98990Y307300D01*
X98726Y307090D01*
X98488Y306848D01*
X98276Y306576D01*
X98092Y306278D01*
X97937Y305954D01*
X97810Y305604D01*
X97711Y305227D01*
X97641Y304823D01*
X97598Y304394D01*
X97584Y303938D01*
X97599Y303482D01*
X97644Y303052D01*
X97719Y302646D01*
X97824Y302265D01*
X97959Y301908D01*
X98124Y301576D01*
X98319Y301268D01*
X98544Y300986D01*
X98795Y300732D01*
X99069Y300512D01*
X99367Y300326D01*
X99687Y300174D01*
X100030Y300056D01*
X100397Y299971D01*
X100786Y299920D01*
X101198Y299904D01*
X101673Y299922D01*
X102132Y299977D01*
X102575Y300069D01*
X103002Y300198D01*
X103400Y300358D01*
X103759Y300544D01*
X104078Y300757D01*
X104357Y300996D01*
X104357Y302775D01*
X101408Y302775D01*
X101408Y303896D01*
X105589Y303896D01*
X105589Y300492D01*
X105175Y300115D01*
X104717Y299784D01*
X104214Y299497D01*
X103667Y299256D01*
X103379Y299153D01*
X103086Y299064D01*
X102786Y298989D01*
X102481Y298927D01*
X102169Y298880D01*
X101851Y298845D01*
X101528Y298825D01*
X101198Y298818D01*
G37*
G36*
X200866Y299720D02*
X197175Y299720D01*
X197175Y309588D01*
X200438Y309588D01*
X201047Y309569D01*
X201621Y309510D01*
X202158Y309412D01*
X202659Y309274D01*
X203125Y309097D01*
X203555Y308881D01*
X203950Y308626D01*
X204308Y308331D01*
X204627Y308000D01*
X204904Y307636D01*
X205138Y307239D01*
X205330Y306809D01*
X205479Y306345D01*
X205585Y305849D01*
X205649Y305319D01*
X205670Y304756D01*
X205661Y304380D01*
X205633Y304016D01*
X205587Y303664D01*
X205521Y303324D01*
X205438Y302996D01*
X205335Y302680D01*
X205214Y302376D01*
X205075Y302084D01*
X204918Y301806D01*
X204746Y301545D01*
X204558Y301300D01*
X204355Y301073D01*
X204137Y300862D01*
X203902Y300667D01*
X203652Y300490D01*
X203387Y300329D01*
X203109Y300187D01*
X202820Y300063D01*
X202520Y299958D01*
X202210Y299872D01*
X201890Y299806D01*
X201559Y299758D01*
X201218Y299730D01*
X200866Y299720D01*
G37*
%LPC*%
G36*
X200712Y300792D02*
X200979Y300799D01*
X201238Y300821D01*
X201489Y300859D01*
X201731Y300911D01*
X201966Y300978D01*
X202192Y301059D01*
X202410Y301156D01*
X202620Y301268D01*
X202820Y301393D01*
X203008Y301532D01*
X203184Y301684D01*
X203348Y301849D01*
X203500Y302027D01*
X203640Y302219D01*
X203768Y302423D01*
X203884Y302641D01*
X203988Y302870D01*
X204077Y303109D01*
X204153Y303358D01*
X204215Y303618D01*
X204263Y303887D01*
X204298Y304167D01*
X204319Y304456D01*
X204325Y304756D01*
X204310Y305201D01*
X204263Y305619D01*
X204184Y306009D01*
X204074Y306373D01*
X203933Y306709D01*
X203760Y307018D01*
X203556Y307299D01*
X203320Y307554D01*
X203055Y307779D01*
X202762Y307975D01*
X202440Y308141D01*
X202090Y308276D01*
X201713Y308381D01*
X201307Y308457D01*
X200873Y308502D01*
X200410Y308517D01*
X198512Y308517D01*
X198512Y300792D01*
X200712Y300792D01*
G37*
%LPD*%
G36*
X188022Y299720D02*
X186831Y299720D01*
X186831Y309588D01*
X188386Y309588D01*
X193723Y301128D01*
X193660Y302311D01*
X193639Y303117D01*
X193639Y309588D01*
X194843Y309588D01*
X194843Y299720D01*
X193232Y299720D01*
X187951Y308125D01*
X187987Y307445D01*
X188022Y306276D01*
X188022Y299720D01*
G37*
G36*
X180192Y299580D02*
X179812Y299590D01*
X179445Y299618D01*
X179091Y299667D01*
X178751Y299734D01*
X178424Y299821D01*
X178111Y299927D01*
X177810Y300052D01*
X177524Y300196D01*
X177252Y300359D01*
X176996Y300538D01*
X176758Y300735D01*
X176535Y300948D01*
X176329Y301179D01*
X176140Y301426D01*
X175967Y301690D01*
X175811Y301972D01*
X175673Y302268D01*
X175552Y302577D01*
X175451Y302899D01*
X175367Y303233D01*
X175303Y303581D01*
X175256Y303941D01*
X175229Y304314D01*
X175219Y304700D01*
X175240Y305283D01*
X175300Y305833D01*
X175401Y306349D01*
X175542Y306831D01*
X175723Y307279D01*
X175944Y307692D01*
X176206Y308073D01*
X176508Y308419D01*
X176847Y308727D01*
X177218Y308995D01*
X177621Y309221D01*
X178058Y309406D01*
X178527Y309550D01*
X179028Y309653D01*
X179562Y309715D01*
X180129Y309735D01*
X180529Y309727D01*
X180910Y309701D01*
X181272Y309658D01*
X181614Y309597D01*
X181937Y309519D01*
X182241Y309424D01*
X182525Y309312D01*
X182790Y309182D01*
X183039Y309033D01*
X183272Y308864D01*
X183491Y308674D01*
X183696Y308462D01*
X183885Y308231D01*
X184060Y307978D01*
X184221Y307704D01*
X184366Y307410D01*
X183092Y307032D01*
X182862Y307424D01*
X182732Y307598D01*
X182592Y307759D01*
X182442Y307905D01*
X182282Y308037D01*
X182112Y308154D01*
X181933Y308258D01*
X181742Y308348D01*
X181541Y308426D01*
X181328Y308492D01*
X181103Y308547D01*
X180868Y308589D01*
X180621Y308619D01*
X180363Y308637D01*
X180094Y308643D01*
X179679Y308627D01*
X179290Y308578D01*
X178926Y308498D01*
X178586Y308385D01*
X178272Y308239D01*
X177984Y308062D01*
X177720Y307852D01*
X177482Y307610D01*
X177270Y307338D01*
X177086Y307040D01*
X176931Y306716D01*
X176804Y306366D01*
X176705Y305989D01*
X176635Y305585D01*
X176592Y305156D01*
X176578Y304700D01*
X176593Y304244D01*
X176638Y303814D01*
X176713Y303408D01*
X176818Y303027D01*
X176953Y302670D01*
X177118Y302338D01*
X177313Y302030D01*
X177538Y301748D01*
X177789Y301494D01*
X178063Y301274D01*
X178361Y301088D01*
X178681Y300936D01*
X179024Y300818D01*
X179391Y300733D01*
X179780Y300682D01*
X180192Y300666D01*
X180667Y300684D01*
X181126Y300739D01*
X181569Y300831D01*
X181996Y300960D01*
X182394Y301120D01*
X182753Y301306D01*
X183072Y301519D01*
X183351Y301758D01*
X183351Y303537D01*
X180402Y303537D01*
X180402Y304658D01*
X184583Y304658D01*
X184583Y301254D01*
X184169Y300877D01*
X183711Y300546D01*
X183208Y300259D01*
X182661Y300018D01*
X182373Y299915D01*
X182080Y299826D01*
X181780Y299751D01*
X181475Y299689D01*
X181163Y299642D01*
X180845Y299607D01*
X180522Y299587D01*
X180192Y299580D01*
G37*
G36*
X364950Y301244D02*
X361259Y301244D01*
X361259Y311112D01*
X364522Y311112D01*
X365131Y311093D01*
X365705Y311034D01*
X366242Y310936D01*
X366743Y310798D01*
X367209Y310621D01*
X367639Y310405D01*
X368034Y310150D01*
X368392Y309855D01*
X368711Y309524D01*
X368988Y309160D01*
X369222Y308763D01*
X369414Y308333D01*
X369563Y307869D01*
X369669Y307373D01*
X369733Y306843D01*
X369754Y306280D01*
X369745Y305904D01*
X369717Y305540D01*
X369671Y305188D01*
X369605Y304848D01*
X369522Y304520D01*
X369419Y304204D01*
X369298Y303900D01*
X369159Y303608D01*
X369002Y303330D01*
X368830Y303069D01*
X368642Y302824D01*
X368439Y302597D01*
X368221Y302386D01*
X367986Y302191D01*
X367736Y302014D01*
X367471Y301853D01*
X367193Y301711D01*
X366904Y301587D01*
X366604Y301482D01*
X366294Y301396D01*
X365974Y301330D01*
X365643Y301282D01*
X365302Y301254D01*
X364950Y301244D01*
G37*
%LPC*%
G36*
X364796Y302316D02*
X365063Y302323D01*
X365322Y302345D01*
X365573Y302383D01*
X365815Y302435D01*
X366050Y302502D01*
X366276Y302583D01*
X366494Y302680D01*
X366704Y302792D01*
X366904Y302917D01*
X367092Y303056D01*
X367268Y303208D01*
X367432Y303373D01*
X367584Y303551D01*
X367724Y303743D01*
X367852Y303947D01*
X367968Y304165D01*
X368072Y304394D01*
X368161Y304633D01*
X368237Y304882D01*
X368299Y305142D01*
X368347Y305411D01*
X368382Y305691D01*
X368403Y305980D01*
X368409Y306280D01*
X368394Y306725D01*
X368347Y307143D01*
X368268Y307533D01*
X368158Y307897D01*
X368017Y308233D01*
X367844Y308542D01*
X367640Y308823D01*
X367404Y309078D01*
X367139Y309303D01*
X366846Y309499D01*
X366524Y309665D01*
X366174Y309800D01*
X365797Y309905D01*
X365391Y309981D01*
X364957Y310026D01*
X364494Y310041D01*
X362596Y310041D01*
X362596Y302316D01*
X364796Y302316D01*
G37*
%LPD*%
G36*
X352106Y301244D02*
X350915Y301244D01*
X350915Y311112D01*
X352470Y311112D01*
X357807Y302652D01*
X357744Y303835D01*
X357723Y304641D01*
X357723Y311112D01*
X358927Y311112D01*
X358927Y301244D01*
X357316Y301244D01*
X352035Y309649D01*
X352071Y308969D01*
X352106Y307800D01*
X352106Y301244D01*
G37*
G36*
X344276Y301104D02*
X343896Y301114D01*
X343529Y301142D01*
X343175Y301191D01*
X342835Y301258D01*
X342508Y301345D01*
X342195Y301451D01*
X341894Y301576D01*
X341608Y301720D01*
X341336Y301883D01*
X341080Y302062D01*
X340842Y302259D01*
X340619Y302472D01*
X340413Y302703D01*
X340224Y302950D01*
X340051Y303214D01*
X339895Y303496D01*
X339757Y303792D01*
X339636Y304101D01*
X339535Y304423D01*
X339451Y304757D01*
X339387Y305105D01*
X339340Y305465D01*
X339313Y305838D01*
X339303Y306224D01*
X339324Y306807D01*
X339384Y307357D01*
X339485Y307873D01*
X339626Y308355D01*
X339807Y308803D01*
X340028Y309216D01*
X340290Y309597D01*
X340592Y309943D01*
X340931Y310251D01*
X341302Y310519D01*
X341705Y310745D01*
X342142Y310930D01*
X342611Y311074D01*
X343112Y311177D01*
X343646Y311239D01*
X344213Y311259D01*
X344613Y311251D01*
X344994Y311225D01*
X345356Y311182D01*
X345698Y311121D01*
X346021Y311043D01*
X346325Y310948D01*
X346609Y310836D01*
X346874Y310706D01*
X347123Y310557D01*
X347356Y310388D01*
X347575Y310198D01*
X347780Y309986D01*
X347969Y309755D01*
X348144Y309502D01*
X348305Y309228D01*
X348450Y308934D01*
X347176Y308556D01*
X346946Y308948D01*
X346816Y309122D01*
X346676Y309283D01*
X346526Y309429D01*
X346366Y309561D01*
X346196Y309678D01*
X346017Y309782D01*
X345826Y309872D01*
X345625Y309950D01*
X345412Y310016D01*
X345187Y310071D01*
X344952Y310113D01*
X344705Y310143D01*
X344447Y310161D01*
X344178Y310167D01*
X343763Y310151D01*
X343374Y310102D01*
X343010Y310022D01*
X342670Y309909D01*
X342356Y309763D01*
X342068Y309586D01*
X341804Y309376D01*
X341566Y309134D01*
X341354Y308862D01*
X341170Y308564D01*
X341015Y308240D01*
X340888Y307890D01*
X340789Y307513D01*
X340719Y307109D01*
X340676Y306680D01*
X340662Y306224D01*
X340677Y305768D01*
X340722Y305338D01*
X340797Y304932D01*
X340902Y304551D01*
X341037Y304194D01*
X341202Y303862D01*
X341397Y303554D01*
X341622Y303272D01*
X341873Y303018D01*
X342147Y302798D01*
X342445Y302612D01*
X342765Y302460D01*
X343108Y302342D01*
X343475Y302257D01*
X343864Y302206D01*
X344276Y302190D01*
X344751Y302208D01*
X345210Y302263D01*
X345653Y302355D01*
X346080Y302484D01*
X346478Y302644D01*
X346837Y302830D01*
X347156Y303043D01*
X347435Y303282D01*
X347435Y305061D01*
X344486Y305061D01*
X344486Y306182D01*
X348667Y306182D01*
X348667Y302778D01*
X348253Y302401D01*
X347795Y302070D01*
X347292Y301783D01*
X346745Y301542D01*
X346457Y301439D01*
X346164Y301350D01*
X345864Y301275D01*
X345559Y301213D01*
X345247Y301166D01*
X344929Y301131D01*
X344606Y301111D01*
X344276Y301104D01*
G37*
G36*
X323403Y301244D02*
X315629Y301244D01*
X315629Y311112D01*
X323116Y311112D01*
X323116Y310020D01*
X316966Y310020D01*
X316966Y306854D01*
X322695Y306854D01*
X322695Y305775D01*
X316966Y305775D01*
X316966Y302337D01*
X323403Y302337D01*
X323403Y301244D01*
G37*
G36*
X328847Y301104D02*
X328408Y301114D01*
X327993Y301143D01*
X327601Y301192D01*
X327233Y301261D01*
X326889Y301349D01*
X326568Y301457D01*
X326271Y301584D01*
X325998Y301731D01*
X325749Y301897D01*
X325523Y302083D01*
X325321Y302289D01*
X325143Y302514D01*
X324988Y302759D01*
X324857Y303024D01*
X324749Y303308D01*
X324666Y303611D01*
X325962Y303870D01*
X326025Y303655D01*
X326105Y303455D01*
X326201Y303270D01*
X326312Y303099D01*
X326439Y302943D01*
X326581Y302802D01*
X326740Y302676D01*
X326914Y302564D01*
X327104Y302467D01*
X327311Y302382D01*
X327534Y302310D01*
X327774Y302252D01*
X328030Y302206D01*
X328302Y302174D01*
X328591Y302154D01*
X328896Y302147D01*
X329211Y302154D01*
X329507Y302175D01*
X329785Y302210D01*
X330044Y302259D01*
X330285Y302321D01*
X330507Y302398D01*
X330711Y302488D01*
X330896Y302592D01*
X331061Y302710D01*
X331204Y302841D01*
X331325Y302984D01*
X331424Y303141D01*
X331501Y303311D01*
X331556Y303494D01*
X331589Y303690D01*
X331600Y303898D01*
X331586Y304129D01*
X331544Y304336D01*
X331475Y304521D01*
X331379Y304683D01*
X331258Y304827D01*
X331114Y304958D01*
X330948Y305076D01*
X330759Y305180D01*
X330321Y305360D01*
X329807Y305509D01*
X328581Y305796D01*
X328031Y305926D01*
X327552Y306056D01*
X327144Y306185D01*
X326806Y306315D01*
X326519Y306448D01*
X326264Y306589D01*
X326041Y306737D01*
X325849Y306893D01*
X325685Y307059D01*
X325540Y307238D01*
X325417Y307432D01*
X325314Y307638D01*
X325233Y307860D01*
X325175Y308097D01*
X325140Y308350D01*
X325128Y308619D01*
X325143Y308927D01*
X325189Y309216D01*
X325265Y309488D01*
X325371Y309741D01*
X325507Y309977D01*
X325674Y310194D01*
X325871Y310392D01*
X326098Y310573D01*
X326354Y310734D01*
X326635Y310873D01*
X326943Y310991D01*
X327277Y311088D01*
X327638Y311163D01*
X328024Y311217D01*
X328436Y311249D01*
X328875Y311259D01*
X329283Y311251D01*
X329666Y311227D01*
X330025Y311187D01*
X330358Y311131D01*
X330667Y311058D01*
X330951Y310970D01*
X331211Y310865D01*
X331446Y310745D01*
X331660Y310605D01*
X331857Y310442D01*
X332038Y310257D01*
X332202Y310049D01*
X332349Y309818D01*
X332480Y309565D01*
X332595Y309289D01*
X332692Y308990D01*
X331375Y308759D01*
X331315Y308948D01*
X331242Y309124D01*
X331157Y309287D01*
X331060Y309436D01*
X330951Y309571D01*
X330829Y309693D01*
X330695Y309802D01*
X330549Y309897D01*
X330389Y309980D01*
X330215Y310052D01*
X330026Y310113D01*
X329822Y310162D01*
X329371Y310229D01*
X328861Y310251D01*
X328574Y310245D01*
X328304Y310226D01*
X328052Y310196D01*
X327818Y310153D01*
X327600Y310098D01*
X327401Y310030D01*
X327219Y309951D01*
X327054Y309859D01*
X326908Y309755D01*
X326781Y309638D01*
X326674Y309510D01*
X326587Y309370D01*
X326518Y309218D01*
X326470Y309054D01*
X326441Y308877D01*
X326431Y308689D01*
X326446Y308471D01*
X326491Y308273D01*
X326567Y308095D01*
X326672Y307936D01*
X326807Y307793D01*
X326967Y307661D01*
X327155Y307541D01*
X327369Y307432D01*
X327653Y307323D01*
X328050Y307202D01*
X328560Y307069D01*
X329183Y306924D01*
X330090Y306710D01*
X330532Y306591D01*
X330955Y306451D01*
X331355Y306288D01*
X331729Y306098D01*
X332066Y305872D01*
X332356Y305600D01*
X332482Y305447D01*
X332593Y305280D01*
X332690Y305100D01*
X332773Y304907D01*
X332839Y304699D01*
X332886Y304473D01*
X332914Y304229D01*
X332923Y303968D01*
X332907Y303637D01*
X332857Y303324D01*
X332773Y303031D01*
X332656Y302757D01*
X332506Y302502D01*
X332323Y302267D01*
X332106Y302050D01*
X331855Y301853D01*
X331575Y301678D01*
X331267Y301525D01*
X330932Y301397D01*
X330569Y301291D01*
X330180Y301209D01*
X329763Y301151D01*
X329318Y301116D01*
X328847Y301104D01*
G37*
G36*
X241439Y299720D02*
X240101Y299720D01*
X240101Y309588D01*
X244745Y309588D01*
X245149Y309577D01*
X245531Y309542D01*
X245888Y309483D01*
X246222Y309402D01*
X246531Y309297D01*
X246818Y309169D01*
X247080Y309017D01*
X247319Y308842D01*
X247531Y308647D01*
X247715Y308433D01*
X247871Y308201D01*
X247999Y307950D01*
X248098Y307682D01*
X248169Y307395D01*
X248211Y307089D01*
X248226Y306766D01*
X248216Y306496D01*
X248185Y306238D01*
X248135Y305990D01*
X248065Y305754D01*
X247975Y305528D01*
X247865Y305313D01*
X247735Y305110D01*
X247585Y304917D01*
X247417Y304738D01*
X247234Y304577D01*
X247036Y304433D01*
X246947Y304380D01*
X246822Y304306D01*
X246593Y304196D01*
X246350Y304104D01*
X246091Y304029D01*
X245816Y303971D01*
X247009Y302162D01*
X248618Y299720D01*
X247077Y299720D01*
X244514Y303817D01*
X241439Y303817D01*
X241439Y299720D01*
G37*
%LPC*%
G36*
X244668Y304875D02*
X244924Y304883D01*
X245166Y304906D01*
X245393Y304944D01*
X245605Y304998D01*
X245802Y305068D01*
X245984Y305153D01*
X246151Y305253D01*
X246303Y305369D01*
X246438Y305498D01*
X246556Y305640D01*
X246655Y305795D01*
X246736Y305961D01*
X246800Y306140D01*
X246845Y306332D01*
X246872Y306536D01*
X246881Y306752D01*
X246872Y306961D01*
X246844Y307157D01*
X246799Y307340D01*
X246735Y307511D01*
X246652Y307669D01*
X246552Y307814D01*
X246433Y307946D01*
X246296Y308065D01*
X246142Y308171D01*
X245971Y308263D01*
X245785Y308340D01*
X245582Y308404D01*
X245364Y308453D01*
X245129Y308489D01*
X244878Y308510D01*
X244612Y308517D01*
X241439Y308517D01*
X241439Y304875D01*
X244668Y304875D01*
G37*
%LPD*%
G36*
X234195Y299580D02*
X233756Y299590D01*
X233340Y299619D01*
X232949Y299668D01*
X232581Y299737D01*
X232236Y299825D01*
X231916Y299933D01*
X231619Y300060D01*
X231346Y300207D01*
X231096Y300373D01*
X230871Y300559D01*
X230668Y300765D01*
X230490Y300990D01*
X230335Y301235D01*
X230204Y301500D01*
X230097Y301784D01*
X230013Y302087D01*
X231309Y302346D01*
X231373Y302131D01*
X231453Y301931D01*
X231548Y301746D01*
X231659Y301575D01*
X231786Y301419D01*
X231929Y301278D01*
X232087Y301152D01*
X232262Y301040D01*
X232452Y300943D01*
X232659Y300858D01*
X232882Y300786D01*
X233121Y300728D01*
X233377Y300682D01*
X233650Y300650D01*
X233938Y300630D01*
X234244Y300623D01*
X234558Y300630D01*
X234854Y300651D01*
X235132Y300686D01*
X235391Y300735D01*
X235632Y300797D01*
X235854Y300874D01*
X236058Y300964D01*
X236243Y301068D01*
X236408Y301186D01*
X236551Y301317D01*
X236672Y301460D01*
X236771Y301617D01*
X236848Y301787D01*
X236903Y301970D01*
X236936Y302166D01*
X236947Y302374D01*
X236933Y302605D01*
X236892Y302812D01*
X236823Y302997D01*
X236726Y303159D01*
X236605Y303303D01*
X236461Y303434D01*
X236295Y303552D01*
X236107Y303656D01*
X235669Y303836D01*
X235154Y303985D01*
X233928Y304272D01*
X233379Y304402D01*
X232900Y304532D01*
X232491Y304661D01*
X232153Y304791D01*
X231866Y304924D01*
X231611Y305065D01*
X231388Y305213D01*
X231197Y305369D01*
X231032Y305535D01*
X230888Y305714D01*
X230764Y305908D01*
X230661Y306114D01*
X230580Y306336D01*
X230522Y306573D01*
X230487Y306826D01*
X230476Y307095D01*
X230491Y307403D01*
X230536Y307692D01*
X230612Y307964D01*
X230718Y308217D01*
X230855Y308453D01*
X231021Y308670D01*
X231218Y308868D01*
X231446Y309049D01*
X231701Y309210D01*
X231983Y309349D01*
X232291Y309467D01*
X232625Y309564D01*
X232985Y309639D01*
X233371Y309693D01*
X233784Y309725D01*
X234223Y309735D01*
X234630Y309727D01*
X235014Y309703D01*
X235372Y309663D01*
X235706Y309607D01*
X236015Y309534D01*
X236299Y309446D01*
X236558Y309341D01*
X236793Y309221D01*
X237007Y309081D01*
X237204Y308918D01*
X237385Y308733D01*
X237549Y308525D01*
X237697Y308294D01*
X237828Y308041D01*
X237942Y307765D01*
X238040Y307466D01*
X236723Y307235D01*
X236663Y307424D01*
X236590Y307600D01*
X236505Y307763D01*
X236408Y307912D01*
X236298Y308047D01*
X236177Y308169D01*
X236043Y308278D01*
X235897Y308373D01*
X235737Y308456D01*
X235563Y308528D01*
X235374Y308589D01*
X235170Y308638D01*
X234719Y308705D01*
X234209Y308727D01*
X233921Y308721D01*
X233652Y308702D01*
X233400Y308672D01*
X233165Y308629D01*
X232948Y308574D01*
X232748Y308506D01*
X232566Y308427D01*
X232402Y308335D01*
X232256Y308231D01*
X232129Y308114D01*
X232022Y307986D01*
X231934Y307846D01*
X231866Y307694D01*
X231817Y307530D01*
X231788Y307353D01*
X231778Y307165D01*
X231793Y306947D01*
X231839Y306749D01*
X231914Y306571D01*
X232020Y306412D01*
X232154Y306269D01*
X232315Y306137D01*
X232503Y306017D01*
X232717Y305908D01*
X233001Y305799D01*
X233398Y305678D01*
X233908Y305545D01*
X234531Y305400D01*
X235438Y305186D01*
X235880Y305067D01*
X236303Y304927D01*
X236703Y304764D01*
X237077Y304574D01*
X237414Y304348D01*
X237704Y304076D01*
X237829Y303923D01*
X237941Y303756D01*
X238038Y303576D01*
X238120Y303383D01*
X238186Y303175D01*
X238233Y302949D01*
X238261Y302705D01*
X238271Y302444D01*
X238254Y302113D01*
X238204Y301800D01*
X238121Y301507D01*
X238004Y301233D01*
X237854Y300978D01*
X237670Y300743D01*
X237453Y300526D01*
X237203Y300329D01*
X236922Y300154D01*
X236614Y300001D01*
X236279Y299873D01*
X235917Y299767D01*
X235527Y299685D01*
X235110Y299627D01*
X234666Y299592D01*
X234195Y299580D01*
G37*
G36*
X254495Y299720D02*
X253108Y299720D01*
X249081Y309588D01*
X250489Y309588D01*
X253221Y302641D01*
X253809Y300897D01*
X254397Y302641D01*
X257115Y309588D01*
X258522Y309588D01*
X254495Y299720D01*
G37*
G36*
X209631Y85852D02*
X208441Y85852D01*
X208441Y95720D01*
X210199Y95720D01*
X212825Y88878D01*
X213095Y87992D01*
X213266Y87309D01*
X213353Y87662D01*
X213501Y88160D01*
X213743Y88878D01*
X216320Y95720D01*
X218036Y95720D01*
X218036Y85852D01*
X216831Y85852D01*
X216831Y92436D01*
X216847Y93507D01*
X216894Y94537D01*
X216569Y93420D01*
X216278Y92576D01*
X213728Y85852D01*
X212790Y85852D01*
X210206Y92576D01*
X209813Y93766D01*
X209582Y94537D01*
X209603Y93759D01*
X209631Y92436D01*
X209631Y85852D01*
G37*
G36*
X226478Y85852D02*
X220294Y85852D01*
X220294Y86924D01*
X222808Y86924D01*
X222808Y94516D01*
X220581Y92926D01*
X220581Y94116D01*
X222914Y95720D01*
X224076Y95720D01*
X224076Y86924D01*
X226478Y86924D01*
X226478Y85852D01*
G37*
G36*
X214964Y407741D02*
X213704Y407741D01*
X213704Y416748D01*
X213693Y417720D01*
X213661Y418296D01*
X214880Y418296D01*
X214901Y418096D01*
X214933Y417568D01*
X214950Y417077D01*
X214978Y417077D01*
X215160Y417404D01*
X215369Y417684D01*
X215605Y417917D01*
X215868Y418103D01*
X216166Y418246D01*
X216509Y418348D01*
X216895Y418409D01*
X217324Y418429D01*
X217664Y418415D01*
X217981Y418371D01*
X218276Y418297D01*
X218548Y418195D01*
X218799Y418063D01*
X219028Y417901D01*
X219234Y417711D01*
X219419Y417491D01*
X219581Y417239D01*
X219722Y416954D01*
X219841Y416636D01*
X219939Y416284D01*
X220014Y415899D01*
X220069Y415480D01*
X220101Y415028D01*
X220112Y414542D01*
X220101Y414062D01*
X220068Y413613D01*
X220014Y413195D01*
X219938Y412808D01*
X219840Y412452D01*
X219720Y412126D01*
X219578Y411832D01*
X219415Y411569D01*
X219230Y411337D01*
X219023Y411135D01*
X218794Y410965D01*
X218544Y410826D01*
X218272Y410717D01*
X217978Y410640D01*
X217662Y410593D01*
X217324Y410578D01*
X216905Y410599D01*
X216521Y410660D01*
X216173Y410763D01*
X215861Y410907D01*
X215584Y411092D01*
X215344Y411319D01*
X215140Y411586D01*
X214971Y411895D01*
X214936Y411895D01*
X214957Y411569D01*
X214964Y410704D01*
X214964Y407741D01*
G37*
%LPC*%
G36*
X216988Y411509D02*
X217215Y411520D01*
X217426Y411553D01*
X217621Y411606D01*
X217800Y411682D01*
X217963Y411779D01*
X218110Y411897D01*
X218242Y412038D01*
X218358Y412199D01*
X218458Y412386D01*
X218546Y412603D01*
X218620Y412848D01*
X218681Y413123D01*
X218728Y413427D01*
X218761Y413760D01*
X218782Y414122D01*
X218788Y414514D01*
X218782Y414896D01*
X218762Y415249D01*
X218728Y415574D01*
X218681Y415871D01*
X218621Y416140D01*
X218548Y416380D01*
X218461Y416592D01*
X218361Y416776D01*
X218246Y416935D01*
X218116Y417073D01*
X217970Y417190D01*
X217808Y417286D01*
X217630Y417360D01*
X217437Y417413D01*
X217227Y417445D01*
X217002Y417456D01*
X216648Y417436D01*
X216334Y417377D01*
X216061Y417278D01*
X215829Y417140D01*
X215630Y416961D01*
X215456Y416737D01*
X215308Y416469D01*
X215185Y416156D01*
X215088Y415797D01*
X215019Y415387D01*
X214978Y414927D01*
X214964Y414416D01*
X214972Y414055D01*
X214994Y413719D01*
X215031Y413407D01*
X215083Y413120D01*
X215150Y412858D01*
X215232Y412620D01*
X215329Y412406D01*
X215440Y412217D01*
X215569Y412051D01*
X215716Y411907D01*
X215881Y411786D01*
X216066Y411686D01*
X216268Y411609D01*
X216490Y411554D01*
X216730Y411520D01*
X216988Y411509D01*
G37*
%LPD*%
G36*
X208725Y410578D02*
X208323Y410594D01*
X207946Y410641D01*
X207595Y410720D01*
X207269Y410831D01*
X206968Y410973D01*
X206693Y411147D01*
X206443Y411353D01*
X206218Y411590D01*
X206019Y411857D01*
X205847Y412152D01*
X205702Y412476D01*
X205582Y412827D01*
X205490Y413207D01*
X205424Y413614D01*
X205384Y414050D01*
X205371Y414514D01*
X205384Y414989D01*
X205424Y415433D01*
X205490Y415847D01*
X205583Y416230D01*
X205702Y416582D01*
X205848Y416904D01*
X206021Y417195D01*
X206220Y417456D01*
X206445Y417685D01*
X206697Y417885D01*
X206976Y418053D01*
X207281Y418191D01*
X207613Y418298D01*
X207971Y418375D01*
X208356Y418421D01*
X208767Y418436D01*
X209187Y418421D01*
X209579Y418376D01*
X209941Y418302D01*
X210275Y418197D01*
X210580Y418063D01*
X210857Y417898D01*
X211105Y417704D01*
X211324Y417480D01*
X211516Y417225D01*
X211682Y416936D01*
X211823Y416615D01*
X211938Y416261D01*
X212028Y415873D01*
X212092Y415453D01*
X212130Y415000D01*
X212143Y414514D01*
X212130Y414033D01*
X212089Y413583D01*
X212020Y413165D01*
X211924Y412779D01*
X211801Y412424D01*
X211651Y412102D01*
X211473Y411811D01*
X211268Y411551D01*
X211037Y411323D01*
X210781Y411126D01*
X210500Y410958D01*
X210194Y410821D01*
X209864Y410715D01*
X209509Y410639D01*
X209130Y410593D01*
X208725Y410578D01*
G37*
%LPC*%
G36*
X208711Y411509D02*
X208985Y411521D01*
X209238Y411555D01*
X209471Y411612D01*
X209684Y411692D01*
X209877Y411794D01*
X210049Y411919D01*
X210201Y412067D01*
X210333Y412238D01*
X210447Y412433D01*
X210546Y412653D01*
X210629Y412899D01*
X210698Y413171D01*
X210751Y413468D01*
X210789Y413791D01*
X210812Y414140D01*
X210820Y414514D01*
X210812Y414893D01*
X210790Y415245D01*
X210754Y415570D01*
X210703Y415868D01*
X210638Y416140D01*
X210558Y416385D01*
X210463Y416603D01*
X210354Y416794D01*
X210227Y416960D01*
X210081Y417105D01*
X209915Y417227D01*
X209730Y417327D01*
X209524Y417405D01*
X209299Y417460D01*
X209053Y417494D01*
X208788Y417505D01*
X208521Y417493D01*
X208273Y417459D01*
X208045Y417403D01*
X207835Y417323D01*
X207645Y417222D01*
X207473Y417097D01*
X207321Y416950D01*
X207188Y416780D01*
X207072Y416586D01*
X206972Y416366D01*
X206887Y416121D01*
X206818Y415851D01*
X206764Y415555D01*
X206725Y415233D01*
X206702Y414887D01*
X206694Y414514D01*
X206702Y414151D01*
X206725Y413811D01*
X206763Y413495D01*
X206816Y413202D01*
X206884Y412932D01*
X206968Y412685D01*
X207067Y412462D01*
X207181Y412262D01*
X207311Y412086D01*
X207459Y411933D01*
X207624Y411804D01*
X207807Y411698D01*
X208007Y411615D01*
X208224Y411556D01*
X208459Y411521D01*
X208711Y411509D01*
G37*
%LPD*%
G36*
X202655Y410718D02*
X201324Y410718D01*
X201324Y419494D01*
X197934Y419494D01*
X197934Y420586D01*
X206045Y420586D01*
X206045Y419494D01*
X202655Y419494D01*
X202655Y410718D01*
G37*
G36*
X217428Y395338D02*
X217081Y395353D01*
X216757Y395398D01*
X216458Y395474D01*
X216182Y395580D01*
X215930Y395715D01*
X215701Y395882D01*
X215497Y396078D01*
X215316Y396304D01*
X215158Y396562D01*
X215020Y396850D01*
X214904Y397169D01*
X214809Y397520D01*
X214735Y397901D01*
X214682Y398314D01*
X214651Y398757D01*
X214640Y399232D01*
X214651Y399712D01*
X214684Y400161D01*
X214738Y400579D01*
X214814Y400966D01*
X214912Y401322D01*
X215032Y401648D01*
X215174Y401942D01*
X215337Y402205D01*
X215522Y402437D01*
X215729Y402639D01*
X215958Y402809D01*
X216208Y402948D01*
X216480Y403057D01*
X216774Y403134D01*
X217090Y403181D01*
X217428Y403196D01*
X217840Y403176D01*
X218217Y403117D01*
X218558Y403019D01*
X218863Y402881D01*
X219137Y402700D01*
X219382Y402473D01*
X219599Y402199D01*
X219788Y401879D01*
X219802Y401879D01*
X219788Y402727D01*
X219788Y405872D01*
X221049Y405872D01*
X221049Y397040D01*
X221059Y396058D01*
X221091Y395478D01*
X219886Y395478D01*
X219840Y395996D01*
X219816Y396697D01*
X219788Y396697D01*
X219599Y396358D01*
X219381Y396072D01*
X219135Y395837D01*
X218860Y395653D01*
X218554Y395515D01*
X218213Y395417D01*
X217838Y395358D01*
X217428Y395338D01*
G37*
%LPC*%
G36*
X217750Y396311D02*
X218008Y396323D01*
X218249Y396358D01*
X218471Y396416D01*
X218674Y396497D01*
X218859Y396601D01*
X219026Y396729D01*
X219175Y396880D01*
X219289Y397033D01*
X219305Y397054D01*
X219418Y397252D01*
X219516Y397476D01*
X219599Y397726D01*
X219667Y398001D01*
X219720Y398302D01*
X219758Y398628D01*
X219780Y398980D01*
X219788Y399358D01*
X219780Y399722D01*
X219758Y400061D01*
X219720Y400374D01*
X219667Y400663D01*
X219599Y400926D01*
X219516Y401164D01*
X219418Y401377D01*
X219305Y401564D01*
X219175Y401728D01*
X219027Y401871D01*
X218861Y401991D01*
X218678Y402090D01*
X218476Y402166D01*
X218257Y402221D01*
X218019Y402254D01*
X217764Y402265D01*
X217534Y402254D01*
X217321Y402221D01*
X217124Y402166D01*
X216943Y402089D01*
X216780Y401990D01*
X216632Y401869D01*
X216502Y401726D01*
X216388Y401561D01*
X216288Y401371D01*
X216202Y401154D01*
X216129Y400909D01*
X216070Y400637D01*
X216023Y400338D01*
X215990Y400011D01*
X215970Y399656D01*
X215964Y399274D01*
X215970Y398891D01*
X215990Y398536D01*
X216023Y398209D01*
X216069Y397910D01*
X216128Y397640D01*
X216200Y397397D01*
X216286Y397184D01*
X216384Y396998D01*
X216497Y396837D01*
X216627Y396698D01*
X216773Y396580D01*
X216936Y396483D01*
X217114Y396408D01*
X217310Y396354D01*
X217522Y396322D01*
X217750Y396311D01*
G37*
%LPD*%
G36*
X188359Y395478D02*
X186972Y395478D01*
X190999Y405346D01*
X192519Y405346D01*
X196483Y395478D01*
X195117Y395478D01*
X193990Y398364D01*
X189493Y398364D01*
X188359Y395478D01*
G37*
%LPC*%
G36*
X193591Y399407D02*
X192323Y402664D01*
X192127Y403179D01*
X191931Y403756D01*
X191742Y404338D01*
X191679Y404142D01*
X191461Y403478D01*
X191160Y402650D01*
X189900Y399407D01*
X193591Y399407D01*
G37*
%LPD*%
G36*
X226055Y395338D02*
X225647Y395354D01*
X225264Y395401D01*
X224907Y395479D01*
X224574Y395588D01*
X224267Y395729D01*
X223984Y395901D01*
X223727Y396105D01*
X223495Y396339D01*
X223289Y396605D01*
X223110Y396901D01*
X222959Y397228D01*
X222836Y397584D01*
X222739Y397972D01*
X222671Y398389D01*
X222630Y398838D01*
X222616Y399316D01*
X222630Y399772D01*
X222671Y400200D01*
X222739Y400601D01*
X222836Y400974D01*
X222959Y401320D01*
X223110Y401639D01*
X223289Y401931D01*
X223495Y402195D01*
X223726Y402429D01*
X223981Y402633D01*
X224260Y402805D01*
X224562Y402946D01*
X224888Y403055D01*
X225237Y403134D01*
X225609Y403181D01*
X226006Y403196D01*
X226410Y403180D01*
X226789Y403133D01*
X227141Y403055D01*
X227467Y402944D01*
X227767Y402803D01*
X228041Y402630D01*
X228289Y402425D01*
X228511Y402189D01*
X228707Y401922D01*
X228877Y401623D01*
X229020Y401293D01*
X229138Y400931D01*
X229229Y400538D01*
X229294Y400113D01*
X229333Y399657D01*
X229346Y399169D01*
X229346Y399001D01*
X223940Y399001D01*
X223948Y398685D01*
X223973Y398387D01*
X224015Y398108D01*
X224074Y397847D01*
X224150Y397605D01*
X224243Y397382D01*
X224352Y397177D01*
X224479Y396991D01*
X224621Y396825D01*
X224780Y396681D01*
X224953Y396560D01*
X225142Y396460D01*
X225347Y396383D01*
X225567Y396328D01*
X225803Y396294D01*
X226055Y396283D01*
X226444Y396304D01*
X226793Y396366D01*
X227101Y396469D01*
X227368Y396613D01*
X227595Y396788D01*
X227782Y396986D01*
X227929Y397205D01*
X228037Y397446D01*
X229143Y397131D01*
X229052Y396914D01*
X228946Y396711D01*
X228828Y396522D01*
X228696Y396346D01*
X228550Y396185D01*
X228391Y396038D01*
X228218Y395905D01*
X228032Y395786D01*
X227832Y395681D01*
X227618Y395590D01*
X227392Y395513D01*
X227151Y395450D01*
X226897Y395401D01*
X226630Y395366D01*
X226349Y395345D01*
X226055Y395338D01*
G37*
%LPC*%
G36*
X228044Y399967D02*
X228011Y400257D01*
X227966Y400526D01*
X227909Y400775D01*
X227839Y401003D01*
X227756Y401211D01*
X227662Y401399D01*
X227554Y401567D01*
X227434Y401715D01*
X227301Y401844D01*
X227155Y401955D01*
X226994Y402050D01*
X226820Y402127D01*
X226632Y402187D01*
X226430Y402230D01*
X226214Y402256D01*
X225985Y402265D01*
X225761Y402255D01*
X225550Y402226D01*
X225350Y402178D01*
X225163Y402111D01*
X224987Y402025D01*
X224823Y401920D01*
X224671Y401795D01*
X224531Y401652D01*
X224405Y401491D01*
X224294Y401317D01*
X224199Y401128D01*
X224119Y400924D01*
X224055Y400707D01*
X224005Y400475D01*
X223972Y400228D01*
X223954Y399967D01*
X228044Y399967D01*
G37*
%LPD*%
G36*
X206120Y395338D02*
X205681Y395348D01*
X205266Y395377D01*
X204874Y395426D01*
X204506Y395495D01*
X204162Y395583D01*
X203842Y395691D01*
X203545Y395818D01*
X203272Y395965D01*
X203022Y396131D01*
X202796Y396317D01*
X202594Y396523D01*
X202416Y396748D01*
X202261Y396993D01*
X202130Y397258D01*
X202023Y397542D01*
X201939Y397845D01*
X203235Y398104D01*
X203299Y397889D01*
X203378Y397689D01*
X203474Y397504D01*
X203585Y397333D01*
X203712Y397177D01*
X203855Y397036D01*
X204013Y396910D01*
X204187Y396798D01*
X204378Y396701D01*
X204584Y396616D01*
X204807Y396544D01*
X205047Y396486D01*
X205303Y396440D01*
X205575Y396408D01*
X205864Y396388D01*
X206169Y396381D01*
X206484Y396388D01*
X206780Y396409D01*
X207058Y396444D01*
X207317Y396493D01*
X207558Y396555D01*
X207780Y396632D01*
X207984Y396722D01*
X208169Y396826D01*
X208334Y396944D01*
X208477Y397075D01*
X208598Y397218D01*
X208697Y397375D01*
X208774Y397545D01*
X208829Y397728D01*
X208862Y397924D01*
X208873Y398132D01*
X208859Y398363D01*
X208818Y398570D01*
X208749Y398755D01*
X208652Y398917D01*
X208531Y399061D01*
X208387Y399192D01*
X208221Y399310D01*
X208032Y399414D01*
X207595Y399594D01*
X207080Y399743D01*
X205854Y400030D01*
X205305Y400160D01*
X204826Y400290D01*
X204417Y400419D01*
X204079Y400549D01*
X203792Y400682D01*
X203537Y400823D01*
X203314Y400971D01*
X203123Y401127D01*
X202958Y401293D01*
X202814Y401472D01*
X202690Y401666D01*
X202587Y401872D01*
X202506Y402094D01*
X202448Y402331D01*
X202413Y402584D01*
X202401Y402853D01*
X202417Y403161D01*
X202462Y403450D01*
X202538Y403722D01*
X202644Y403975D01*
X202780Y404211D01*
X202947Y404428D01*
X203144Y404626D01*
X203371Y404807D01*
X203627Y404968D01*
X203909Y405107D01*
X204217Y405225D01*
X204551Y405322D01*
X204911Y405397D01*
X205297Y405451D01*
X205710Y405483D01*
X206148Y405493D01*
X206556Y405485D01*
X206939Y405461D01*
X207298Y405421D01*
X207631Y405365D01*
X207940Y405292D01*
X208225Y405204D01*
X208484Y405099D01*
X208719Y404979D01*
X208933Y404839D01*
X209130Y404676D01*
X209311Y404491D01*
X209475Y404283D01*
X209623Y404052D01*
X209754Y403799D01*
X209868Y403523D01*
X209965Y403224D01*
X208649Y402993D01*
X208588Y403182D01*
X208516Y403358D01*
X208431Y403521D01*
X208334Y403670D01*
X208224Y403805D01*
X208102Y403927D01*
X207968Y404036D01*
X207822Y404131D01*
X207663Y404214D01*
X207488Y404286D01*
X207299Y404347D01*
X207096Y404396D01*
X206644Y404463D01*
X206134Y404485D01*
X205847Y404479D01*
X205578Y404460D01*
X205325Y404430D01*
X205091Y404387D01*
X204874Y404332D01*
X204674Y404264D01*
X204492Y404185D01*
X204327Y404093D01*
X204181Y403989D01*
X204055Y403872D01*
X203948Y403744D01*
X203860Y403604D01*
X203792Y403452D01*
X203743Y403288D01*
X203714Y403111D01*
X203704Y402923D01*
X203719Y402705D01*
X203764Y402507D01*
X203840Y402329D01*
X203946Y402170D01*
X204080Y402027D01*
X204241Y401895D01*
X204428Y401775D01*
X204643Y401666D01*
X204927Y401557D01*
X205324Y401436D01*
X205834Y401303D01*
X206457Y401158D01*
X207364Y400944D01*
X207806Y400825D01*
X208229Y400685D01*
X208629Y400522D01*
X209002Y400332D01*
X209339Y400106D01*
X209629Y399834D01*
X209755Y399681D01*
X209867Y399514D01*
X209963Y399334D01*
X210046Y399141D01*
X210112Y398933D01*
X210159Y398707D01*
X210187Y398463D01*
X210197Y398202D01*
X210180Y397871D01*
X210130Y397558D01*
X210046Y397265D01*
X209930Y396991D01*
X209779Y396736D01*
X209596Y396501D01*
X209379Y396284D01*
X209128Y396087D01*
X208848Y395912D01*
X208540Y395759D01*
X208205Y395631D01*
X207842Y395525D01*
X207453Y395443D01*
X207036Y395385D01*
X206592Y395350D01*
X206120Y395338D01*
G37*
G36*
X213070Y395478D02*
X211810Y395478D01*
X211810Y403056D01*
X213070Y403056D01*
X213070Y395478D01*
G37*
G36*
X200646Y398728D02*
X197144Y398728D01*
X197144Y399848D01*
X200646Y399848D01*
X200646Y398728D01*
G37*
G36*
X213070Y404667D02*
X211810Y404667D01*
X211810Y405872D01*
X213070Y405872D01*
X213070Y404667D01*
G37*
D10*
X40827Y189987D02*
X40827Y200008D01*
X49523Y205048D01*
X40832Y230350D02*
X40832Y240350D01*
X49429Y245515D01*
X42582Y197772D02*
X42582Y191100D01*
X42582Y197772D02*
X48644Y194436D01*
X48582Y228100D02*
X42703Y231475D01*
X42703Y238210D01*
X49522Y202882D02*
X43741Y199469D01*
X43832Y239850D02*
X49523Y243270D01*
X42582Y191100D02*
X48582Y187607D01*
X48582Y228100D02*
X48582Y234850D01*
X42703Y238210D01*
X48644Y194436D02*
X48582Y187607D01*
X60298Y201205D02*
X48668Y207879D01*
X48668Y222533D01*
X58332Y240350D02*
X49429Y245515D01*
X43741Y199469D02*
X49522Y196104D01*
X55384Y199469D02*
X49522Y202882D01*
X40827Y189987D02*
X49523Y184907D01*
X58261Y200008D02*
X49523Y205048D01*
X49523Y236526D02*
X43832Y239850D01*
X49523Y243270D02*
X55377Y239850D01*
X49582Y225350D02*
X40832Y230350D01*
X50449Y194350D02*
X50449Y187607D01*
X50449Y194350D02*
X56336Y197772D01*
X50473Y228100D02*
X50473Y234842D01*
X56397Y238210D01*
X50478Y208946D02*
X60335Y203220D01*
X50478Y208946D02*
X50532Y220245D01*
X51354Y221957D02*
X60206Y216816D01*
X49523Y236526D02*
X55377Y239850D01*
X55384Y199469D02*
X49522Y196104D01*
X56336Y191100D02*
X50449Y187607D01*
X56336Y191100D02*
X56336Y197772D01*
X50473Y228100D02*
X56397Y231471D01*
X56397Y238210D01*
X58261Y189987D02*
X49523Y184907D01*
X58261Y189987D02*
X58261Y200008D01*
X49582Y225350D02*
X58332Y230350D01*
X58332Y240350D01*
X60206Y227064D02*
X60206Y216816D01*
X51354Y221957D02*
X60206Y227064D01*
X60298Y187600D02*
X72779Y180437D01*
X60298Y187600D02*
X60298Y201205D01*
X48668Y222533D02*
X60298Y229217D01*
X60298Y242690D01*
X50532Y220245D02*
X60323Y214558D01*
X60335Y203220D01*
X62082Y200100D02*
X61989Y188797D01*
X62082Y200100D02*
X71915Y194388D01*
X62171Y230325D02*
X70922Y235373D01*
X62171Y230325D02*
X62171Y240422D01*
X62203Y226940D02*
X71882Y221318D01*
X62214Y202129D02*
X71861Y196525D01*
X62214Y202129D02*
X62226Y213453D01*
X62226Y215709D02*
X62203Y226940D01*
X63057Y228709D02*
X72766Y223069D01*
X72832Y236475D02*
X63082Y242100D01*
X62171Y240422D02*
X70922Y235373D01*
X71915Y207824D02*
X71861Y196525D01*
X71882Y210100D02*
X62226Y215709D01*
X71882Y221318D02*
X71882Y210100D01*
X71915Y194388D02*
X71927Y183206D01*
X71915Y207824D02*
X62226Y213453D01*
X61989Y188797D02*
X71927Y183206D01*
X71953Y254991D02*
X71953Y269460D01*
X84582Y276850D01*
X82542Y228709D02*
X72766Y223069D01*
X63057Y228709D02*
X72766Y234310D01*
X84582Y187225D02*
X72779Y180437D01*
X72832Y236475D02*
X82582Y242100D01*
X72832Y247850D02*
X63082Y242100D01*
X60298Y242690D02*
X72909Y249939D01*
X73715Y193343D02*
X73715Y182980D01*
X82490Y188246D02*
X73715Y193343D01*
X83582Y250600D02*
X73800Y256100D01*
X73800Y267384D01*
X73877Y195600D02*
X83559Y190020D01*
X73877Y195600D02*
X73877Y206694D01*
X73877Y210100D02*
X83576Y215712D01*
X73877Y210100D02*
X73877Y221325D01*
X74770Y208423D02*
X84582Y202723D01*
X74907Y268983D02*
X84582Y274729D01*
X75023Y235361D02*
X84582Y229796D01*
X82490Y188246D02*
X73715Y182980D01*
X82542Y228709D02*
X72766Y234310D01*
X82582Y242100D02*
X72832Y247850D01*
X83582Y201100D02*
X83559Y190020D01*
X83576Y215712D02*
X83582Y226940D01*
X73877Y206694D02*
X83582Y201100D01*
X73877Y221325D02*
X83582Y226940D01*
X83582Y250600D02*
X83582Y261600D01*
X73800Y267384D01*
X84582Y214100D02*
X74770Y208423D01*
X84582Y214100D02*
X94394Y208423D01*
X75023Y235361D02*
X84582Y240850D01*
X94141Y235361D01*
X84582Y243227D02*
X72909Y249939D01*
X84582Y243227D02*
X96255Y249939D01*
X84582Y247730D02*
X71953Y254991D01*
X84582Y247730D02*
X97211Y254991D01*
X84582Y263444D02*
X74907Y268983D01*
X84582Y263444D02*
X94257Y268983D01*
X95287Y206694D02*
X85582Y201100D01*
X95287Y221325D02*
X85582Y226940D01*
X85582Y250600D02*
X85582Y261600D01*
X95364Y267384D01*
X85582Y226940D02*
X85588Y215712D01*
X85582Y201100D02*
X85605Y190020D01*
X86582Y242100D02*
X96332Y247850D01*
X96398Y234310D02*
X86622Y228709D01*
X86674Y188246D02*
X95450Y182980D01*
X84582Y229796D02*
X94141Y235361D01*
X94257Y268983D02*
X84582Y274729D01*
X94394Y208423D02*
X84582Y202723D01*
X85605Y190020D02*
X95287Y195600D01*
X95287Y206694D01*
X95287Y210100D02*
X85588Y215712D01*
X95287Y210100D02*
X95287Y221325D01*
X85582Y250600D02*
X95364Y256100D01*
X95364Y267384D01*
X95450Y193343D02*
X95450Y182980D01*
X86674Y188246D02*
X95450Y193343D01*
X108866Y242690D02*
X96255Y249939D01*
X86582Y242100D02*
X96332Y236475D01*
X106082Y242100D02*
X96332Y247850D01*
X84582Y187225D02*
X96385Y180437D01*
X96398Y223069D02*
X86622Y228709D01*
X96398Y234310D02*
X106107Y228709D01*
X97211Y254991D02*
X97211Y269460D01*
X84582Y276850D01*
X107175Y188797D02*
X97237Y183206D01*
X97249Y194388D01*
X97249Y207824D02*
X106938Y213453D01*
X106938Y215709D02*
X97282Y210100D01*
X97282Y221318D01*
X97249Y207824D02*
X97303Y196525D01*
X98242Y235373D02*
X106994Y240422D01*
X106082Y242100D02*
X96332Y236475D01*
X106107Y228709D02*
X96398Y223069D01*
X106938Y213453D02*
X106950Y202129D01*
X106938Y215709D02*
X106961Y226940D01*
X106950Y202129D02*
X97303Y196525D01*
X97282Y221318D02*
X106961Y226940D01*
X106994Y230325D02*
X98242Y235373D01*
X106994Y240422D02*
X106994Y230325D01*
X107082Y200100D02*
X97249Y194388D01*
X107082Y200100D02*
X107175Y188797D01*
X108829Y203220D02*
X108841Y214558D01*
X118632Y220245D01*
X108866Y187600D02*
X96385Y180437D01*
X108866Y187600D02*
X108866Y201205D01*
X120496Y222533D02*
X108866Y229217D01*
X108866Y242690D01*
X108958Y227064D02*
X108958Y216816D01*
X117810Y221957D02*
X108958Y227064D01*
X110832Y230350D02*
X119582Y225350D01*
X110832Y230350D02*
X110832Y240350D01*
X110903Y189987D02*
X119641Y184907D01*
X110903Y189987D02*
X110903Y200008D01*
X118691Y228100D02*
X112767Y231471D01*
X112767Y238210D01*
X112828Y191100D02*
X118715Y187607D01*
X112828Y191100D02*
X112828Y197772D01*
X113780Y199469D02*
X119642Y196104D01*
X119641Y236526D02*
X113787Y239850D01*
X117810Y221957D02*
X108958Y216816D01*
X118632Y220245D02*
X118686Y208946D01*
X108829Y203220D01*
X118691Y228100D02*
X118691Y234842D01*
X112767Y238210D01*
X118715Y194350D02*
X118715Y187607D01*
X118715Y194350D02*
X112828Y197772D01*
X119582Y225350D02*
X128332Y230350D01*
X128337Y189987D02*
X119641Y184907D01*
X110903Y200008D02*
X119641Y205048D01*
X119641Y236526D02*
X125332Y239850D01*
X119641Y243270D02*
X113787Y239850D01*
X125423Y199469D02*
X119642Y196104D01*
X113780Y199469D02*
X119642Y202882D01*
X110832Y240350D02*
X119735Y245515D01*
X120496Y207879D02*
X108866Y201205D01*
X120496Y207879D02*
X120496Y222533D01*
X120520Y194436D02*
X120582Y187607D01*
X126582Y191100D01*
X120582Y228100D02*
X120582Y234850D01*
X126461Y238210D01*
X125332Y239850D02*
X119641Y243270D01*
X119642Y202882D02*
X125423Y199469D01*
X120582Y228100D02*
X126461Y231475D01*
X126461Y238210D01*
X126582Y197772D02*
X126582Y191100D01*
X126582Y197772D02*
X120520Y194436D01*
X128332Y230350D02*
X128332Y240350D01*
X119735Y245515D01*
X128337Y200008D02*
X128337Y189987D01*
X128337Y200008D02*
X119641Y205048D01*
X131688Y315844D02*
X57688Y315844D01*
X131688Y315844D02*
X131688Y373344D01*
X57688Y373344D02*
X57688Y315844D01*
X57688Y373344D02*
X131688Y373344D01*
X301528Y315590D02*
X375528Y315590D01*
X375528Y373090D01*
X301528Y373090D02*
X301528Y315590D01*
X301528Y373090D02*
X375528Y373090D01*
X280024Y25444D02*
X156024Y25444D01*
X156024Y82944D02*
X280024Y82944D01*
X280024Y25444D01*
X156024Y25444D02*
X156024Y82944D01*
X166508Y373082D02*
X265508Y373082D01*
X265508Y315582D02*
X166508Y315582D01*
X166508Y373082D01*
X265508Y373082D02*
X265508Y315582D01*
M02*
