G04 EAGLE Gerber RS-274X export*
G75*
%MOMM*%
%FSLAX34Y34*%
%LPD*%
%INBottom Copper*%
%IPPOS*%
%AMOC8*
5,1,8,0,0,1.08239X$1,22.5*%
G01*
G04 Define Apertures*
%ADD10C,1.879600*%
%ADD11C,1.348000*%
G36*
X376214Y23382D02*
X375917Y23322D01*
X55884Y23322D01*
X55722Y23339D01*
X55444Y23461D01*
X55236Y23682D01*
X55131Y23967D01*
X55144Y24269D01*
X55275Y24543D01*
X55503Y24744D01*
X58472Y26458D01*
X64575Y33731D01*
X67822Y42653D01*
X67822Y52147D01*
X64575Y61069D01*
X58472Y68342D01*
X50250Y73089D01*
X40900Y74737D01*
X31550Y73089D01*
X23328Y68342D01*
X18168Y62192D01*
X17903Y61990D01*
X17608Y61920D01*
X17309Y61971D01*
X17054Y62134D01*
X16882Y62385D01*
X16822Y62682D01*
X16822Y382118D01*
X16895Y382443D01*
X17076Y382686D01*
X17338Y382839D01*
X17638Y382878D01*
X17930Y382797D01*
X18168Y382608D01*
X23328Y376458D01*
X31550Y371711D01*
X40900Y370063D01*
X50250Y371711D01*
X58472Y376458D01*
X64575Y383731D01*
X67822Y392653D01*
X67822Y402147D01*
X64575Y411069D01*
X58472Y418342D01*
X55503Y420056D01*
X55371Y420152D01*
X55192Y420397D01*
X55122Y420692D01*
X55173Y420991D01*
X55336Y421246D01*
X55586Y421418D01*
X55884Y421478D01*
X375917Y421478D01*
X376078Y421461D01*
X376356Y421339D01*
X376564Y421118D01*
X376669Y420834D01*
X376656Y420531D01*
X376525Y420257D01*
X376298Y420056D01*
X373328Y418342D01*
X367225Y411069D01*
X363978Y402147D01*
X363978Y392653D01*
X367225Y383731D01*
X373328Y376458D01*
X381550Y371711D01*
X390900Y370063D01*
X400250Y371711D01*
X408472Y376458D01*
X413632Y382608D01*
X413897Y382810D01*
X414192Y382880D01*
X414491Y382829D01*
X414746Y382666D01*
X414918Y382416D01*
X414978Y382118D01*
X414978Y62682D01*
X414905Y62357D01*
X414724Y62114D01*
X414462Y61961D01*
X414162Y61922D01*
X413870Y62003D01*
X413632Y62192D01*
X408472Y68342D01*
X400250Y73089D01*
X390900Y74737D01*
X381550Y73089D01*
X373328Y68342D01*
X367225Y61069D01*
X363978Y52147D01*
X363978Y42653D01*
X367225Y33731D01*
X373328Y26458D01*
X376298Y24744D01*
X376429Y24648D01*
X376608Y24403D01*
X376678Y24108D01*
X376627Y23809D01*
X376464Y23554D01*
X376214Y23382D01*
G37*
%LPC*%
G36*
X97908Y340106D02*
X106426Y340106D01*
X106426Y348624D01*
X105342Y348624D01*
X101931Y347211D01*
X99321Y344601D01*
X97908Y341190D01*
X97908Y340106D01*
G37*
G36*
X107950Y340106D02*
X116468Y340106D01*
X116468Y341190D01*
X115055Y344601D01*
X112445Y347211D01*
X109034Y348624D01*
X107950Y348624D01*
X107950Y340106D01*
G37*
G36*
X341748Y339852D02*
X350266Y339852D01*
X350266Y348370D01*
X349182Y348370D01*
X345771Y346957D01*
X343161Y344347D01*
X341748Y340936D01*
X341748Y339852D01*
G37*
G36*
X351790Y339852D02*
X360308Y339852D01*
X360308Y340936D01*
X358895Y344347D01*
X356285Y346957D01*
X352874Y348370D01*
X351790Y348370D01*
X351790Y339852D01*
G37*
G36*
X181728Y339344D02*
X190246Y339344D01*
X190246Y347862D01*
X189162Y347862D01*
X185751Y346449D01*
X183141Y343839D01*
X181728Y340428D01*
X181728Y339344D01*
G37*
G36*
X191770Y339344D02*
X200288Y339344D01*
X200288Y340428D01*
X198875Y343839D01*
X196265Y346449D01*
X192854Y347862D01*
X191770Y347862D01*
X191770Y339344D01*
G37*
G36*
X80544Y331080D02*
X83832Y331080D01*
X86869Y332338D01*
X89194Y334663D01*
X90452Y337700D01*
X90452Y340988D01*
X89194Y344025D01*
X86869Y346350D01*
X83832Y347608D01*
X80544Y347608D01*
X77507Y346350D01*
X75182Y344025D01*
X73924Y340988D01*
X73924Y337700D01*
X75182Y334663D01*
X77507Y332338D01*
X80544Y331080D01*
G37*
G36*
X324384Y330826D02*
X327672Y330826D01*
X330709Y332084D01*
X333034Y334409D01*
X334292Y337446D01*
X334292Y340734D01*
X333034Y343771D01*
X330709Y346096D01*
X327672Y347354D01*
X324384Y347354D01*
X321347Y346096D01*
X319022Y343771D01*
X317764Y340734D01*
X317764Y337446D01*
X319022Y334409D01*
X321347Y332084D01*
X324384Y330826D01*
G37*
G36*
X239364Y330318D02*
X242652Y330318D01*
X245689Y331576D01*
X248014Y333901D01*
X249272Y336938D01*
X249272Y340226D01*
X248014Y343263D01*
X245689Y345588D01*
X242652Y346846D01*
X239364Y346846D01*
X236327Y345588D01*
X234002Y343263D01*
X232744Y340226D01*
X232744Y336938D01*
X234002Y333901D01*
X236327Y331576D01*
X239364Y330318D01*
G37*
G36*
X214364Y330318D02*
X217652Y330318D01*
X220689Y331576D01*
X223014Y333901D01*
X224272Y336938D01*
X224272Y340226D01*
X223014Y343263D01*
X220689Y345588D01*
X217652Y346846D01*
X214364Y346846D01*
X211327Y345588D01*
X209002Y343263D01*
X207744Y340226D01*
X207744Y336938D01*
X209002Y333901D01*
X211327Y331576D01*
X214364Y330318D01*
G37*
G36*
X107950Y330064D02*
X109034Y330064D01*
X112445Y331477D01*
X115055Y334087D01*
X116468Y337498D01*
X116468Y338582D01*
X107950Y338582D01*
X107950Y330064D01*
G37*
G36*
X105342Y330064D02*
X106426Y330064D01*
X106426Y338582D01*
X97908Y338582D01*
X97908Y337498D01*
X99321Y334087D01*
X101931Y331477D01*
X105342Y330064D01*
G37*
G36*
X349182Y329810D02*
X350266Y329810D01*
X350266Y338328D01*
X341748Y338328D01*
X341748Y337244D01*
X343161Y333833D01*
X345771Y331223D01*
X349182Y329810D01*
G37*
G36*
X351790Y329810D02*
X352874Y329810D01*
X356285Y331223D01*
X358895Y333833D01*
X360308Y337244D01*
X360308Y338328D01*
X351790Y338328D01*
X351790Y329810D01*
G37*
G36*
X191770Y329302D02*
X192854Y329302D01*
X196265Y330715D01*
X198875Y333325D01*
X200288Y336736D01*
X200288Y337820D01*
X191770Y337820D01*
X191770Y329302D01*
G37*
G36*
X189162Y329302D02*
X190246Y329302D01*
X190246Y337820D01*
X181728Y337820D01*
X181728Y336736D01*
X183141Y333325D01*
X185751Y330715D01*
X189162Y329302D01*
G37*
G36*
X292862Y152839D02*
X304038Y152839D01*
X304038Y164015D01*
X302425Y164015D01*
X298038Y162197D01*
X294679Y158839D01*
X292862Y154452D01*
X292862Y152839D01*
G37*
G36*
X305562Y152839D02*
X316738Y152839D01*
X316738Y154452D01*
X314921Y158839D01*
X311562Y162197D01*
X307175Y164015D01*
X305562Y164015D01*
X305562Y152839D01*
G37*
G36*
X277227Y141155D02*
X281573Y141155D01*
X285587Y142818D01*
X288659Y145890D01*
X290322Y149904D01*
X290322Y154249D01*
X288659Y158264D01*
X285587Y161336D01*
X281573Y162999D01*
X277227Y162999D01*
X273213Y161336D01*
X270141Y158264D01*
X268478Y154249D01*
X268478Y149904D01*
X270141Y145890D01*
X273213Y142818D01*
X277227Y141155D01*
G37*
G36*
X251827Y141155D02*
X256173Y141155D01*
X260187Y142818D01*
X263259Y145890D01*
X264922Y149904D01*
X264922Y154249D01*
X263259Y158264D01*
X260187Y161336D01*
X256173Y162999D01*
X251827Y162999D01*
X247813Y161336D01*
X244741Y158264D01*
X243078Y154249D01*
X243078Y149904D01*
X244741Y145890D01*
X247813Y142818D01*
X251827Y141155D01*
G37*
G36*
X226427Y141155D02*
X230773Y141155D01*
X234787Y142818D01*
X237859Y145890D01*
X239522Y149904D01*
X239522Y154249D01*
X237859Y158264D01*
X234787Y161336D01*
X230773Y162999D01*
X226427Y162999D01*
X222413Y161336D01*
X219341Y158264D01*
X217678Y154249D01*
X217678Y149904D01*
X219341Y145890D01*
X222413Y142818D01*
X226427Y141155D01*
G37*
G36*
X201027Y141155D02*
X205373Y141155D01*
X209387Y142818D01*
X212459Y145890D01*
X214122Y149904D01*
X214122Y154249D01*
X212459Y158264D01*
X209387Y161336D01*
X205373Y162999D01*
X201027Y162999D01*
X197013Y161336D01*
X193941Y158264D01*
X192278Y154249D01*
X192278Y149904D01*
X193941Y145890D01*
X197013Y142818D01*
X201027Y141155D01*
G37*
G36*
X175627Y141155D02*
X179973Y141155D01*
X183987Y142818D01*
X187059Y145890D01*
X188722Y149904D01*
X188722Y154249D01*
X187059Y158264D01*
X183987Y161336D01*
X179973Y162999D01*
X175627Y162999D01*
X171613Y161336D01*
X168541Y158264D01*
X166878Y154249D01*
X166878Y149904D01*
X168541Y145890D01*
X171613Y142818D01*
X175627Y141155D01*
G37*
G36*
X150227Y141155D02*
X154573Y141155D01*
X158587Y142818D01*
X161659Y145890D01*
X163322Y149904D01*
X163322Y154249D01*
X161659Y158264D01*
X158587Y161336D01*
X154573Y162999D01*
X150227Y162999D01*
X146213Y161336D01*
X143141Y158264D01*
X141478Y154249D01*
X141478Y149904D01*
X143141Y145890D01*
X146213Y142818D01*
X150227Y141155D01*
G37*
G36*
X124827Y141155D02*
X129173Y141155D01*
X133187Y142818D01*
X136259Y145890D01*
X137922Y149904D01*
X137922Y154249D01*
X136259Y158264D01*
X133187Y161336D01*
X129173Y162999D01*
X124827Y162999D01*
X120813Y161336D01*
X117741Y158264D01*
X116078Y154249D01*
X116078Y149904D01*
X117741Y145890D01*
X120813Y142818D01*
X124827Y141155D01*
G37*
G36*
X305562Y140139D02*
X307175Y140139D01*
X311562Y141956D01*
X314921Y145315D01*
X316738Y149702D01*
X316738Y151315D01*
X305562Y151315D01*
X305562Y140139D01*
G37*
G36*
X302425Y140139D02*
X304038Y140139D01*
X304038Y151315D01*
X292862Y151315D01*
X292862Y149702D01*
X294679Y145315D01*
X298038Y141956D01*
X302425Y140139D01*
G37*
G36*
X253880Y51680D02*
X257168Y51680D01*
X260205Y52938D01*
X262530Y55263D01*
X263788Y58300D01*
X263788Y61588D01*
X262530Y64625D01*
X260205Y66950D01*
X257168Y68208D01*
X253880Y68208D01*
X250843Y66950D01*
X248518Y64625D01*
X247260Y61588D01*
X247260Y58300D01*
X248518Y55263D01*
X250843Y52938D01*
X253880Y51680D01*
G37*
G36*
X228880Y51680D02*
X232168Y51680D01*
X235205Y52938D01*
X237530Y55263D01*
X238788Y58300D01*
X238788Y61588D01*
X237530Y64625D01*
X235205Y66950D01*
X232168Y68208D01*
X228880Y68208D01*
X225843Y66950D01*
X223518Y64625D01*
X222260Y61588D01*
X222260Y58300D01*
X223518Y55263D01*
X225843Y52938D01*
X228880Y51680D01*
G37*
G36*
X203880Y51680D02*
X207168Y51680D01*
X210205Y52938D01*
X212530Y55263D01*
X213788Y58300D01*
X213788Y61588D01*
X212530Y64625D01*
X210205Y66950D01*
X207168Y68208D01*
X203880Y68208D01*
X200843Y66950D01*
X198518Y64625D01*
X197260Y61588D01*
X197260Y58300D01*
X198518Y55263D01*
X200843Y52938D01*
X203880Y51680D01*
G37*
G36*
X178880Y51680D02*
X182168Y51680D01*
X185205Y52938D01*
X187530Y55263D01*
X188788Y58300D01*
X188788Y61588D01*
X187530Y64625D01*
X185205Y66950D01*
X182168Y68208D01*
X178880Y68208D01*
X175843Y66950D01*
X173518Y64625D01*
X172260Y61588D01*
X172260Y58300D01*
X173518Y55263D01*
X175843Y52938D01*
X178880Y51680D01*
G37*
%LPD*%
D10*
X127000Y152077D03*
X152400Y152077D03*
X177800Y152077D03*
X203200Y152077D03*
X228600Y152077D03*
X254000Y152077D03*
X279400Y152077D03*
X304800Y152077D03*
D11*
X107188Y339344D03*
X82188Y339344D03*
X351028Y339090D03*
X326028Y339090D03*
X255524Y59944D03*
X230524Y59944D03*
X205524Y59944D03*
X180524Y59944D03*
X191008Y338582D03*
X216008Y338582D03*
X241008Y338582D03*
M02*
