G04 EAGLE Gerber RS-274X export*
G75*
%MOMM*%
%FSLAX34Y34*%
%LPD*%
%IN*%
%IPPOS*%
%AMOC8*
5,1,8,0,0,1.08239X$1,22.5*%
G01*
G04 Define Apertures*
%ADD10C,0.254000*%
D10*
X5900Y47400D02*
X6033Y44350D01*
X6432Y41322D01*
X7093Y38341D01*
X8011Y35429D01*
X9179Y32608D01*
X10589Y29900D01*
X12230Y27325D01*
X14088Y24902D01*
X16151Y22651D01*
X18402Y20588D01*
X20825Y18730D01*
X23400Y17089D01*
X26108Y15679D01*
X28929Y14511D01*
X31841Y13593D01*
X34822Y12932D01*
X37850Y12533D01*
X40900Y12400D01*
X390900Y12400D01*
X393950Y12533D01*
X396978Y12932D01*
X399959Y13593D01*
X402871Y14511D01*
X405692Y15679D01*
X408400Y17089D01*
X410975Y18730D01*
X413398Y20588D01*
X415649Y22651D01*
X417712Y24902D01*
X419570Y27325D01*
X421211Y29900D01*
X422621Y32608D01*
X423789Y35429D01*
X424707Y38341D01*
X425368Y41322D01*
X425767Y44350D01*
X425900Y47400D01*
X425900Y397400D01*
X425767Y400450D01*
X425368Y403478D01*
X424707Y406459D01*
X423789Y409371D01*
X422621Y412192D01*
X421211Y414900D01*
X419570Y417475D01*
X417712Y419898D01*
X415649Y422149D01*
X413398Y424212D01*
X410975Y426070D01*
X408400Y427711D01*
X405692Y429121D01*
X402871Y430289D01*
X399959Y431207D01*
X396978Y431868D01*
X393950Y432267D01*
X390900Y432400D01*
X40900Y432400D01*
X37850Y432267D01*
X34822Y431868D01*
X31841Y431207D01*
X28929Y430289D01*
X26108Y429121D01*
X23400Y427711D01*
X20825Y426070D01*
X18402Y424212D01*
X16151Y422149D01*
X14088Y419898D01*
X12230Y417475D01*
X10589Y414900D01*
X9179Y412192D01*
X8011Y409371D01*
X7093Y406459D01*
X6432Y403478D01*
X6033Y400450D01*
X5900Y397400D01*
X5900Y47400D01*
X56900Y46876D02*
X56900Y47924D01*
X56832Y48969D01*
X56695Y50008D01*
X56490Y51035D01*
X56219Y52047D01*
X55883Y53039D01*
X55482Y54007D01*
X55018Y54946D01*
X54495Y55854D01*
X53913Y56725D01*
X53275Y57556D01*
X52584Y58343D01*
X51843Y59084D01*
X51056Y59775D01*
X50225Y60413D01*
X49354Y60995D01*
X48446Y61518D01*
X47507Y61982D01*
X46539Y62383D01*
X45547Y62719D01*
X44535Y62990D01*
X43508Y63195D01*
X42469Y63332D01*
X41424Y63400D01*
X40376Y63400D01*
X39331Y63332D01*
X38292Y63195D01*
X37265Y62990D01*
X36253Y62719D01*
X35261Y62383D01*
X34293Y61982D01*
X33354Y61518D01*
X32446Y60995D01*
X31575Y60413D01*
X30744Y59775D01*
X29957Y59084D01*
X29216Y58343D01*
X28525Y57556D01*
X27888Y56725D01*
X27306Y55854D01*
X26782Y54946D01*
X26318Y54007D01*
X25917Y53039D01*
X25581Y52047D01*
X25310Y51035D01*
X25105Y50008D01*
X24969Y48969D01*
X24900Y47924D01*
X24900Y46876D01*
X24969Y45831D01*
X25105Y44792D01*
X25310Y43765D01*
X25581Y42753D01*
X25917Y41761D01*
X26318Y40793D01*
X26782Y39854D01*
X27306Y38946D01*
X27888Y38075D01*
X28525Y37244D01*
X29216Y36457D01*
X29957Y35716D01*
X30744Y35025D01*
X31575Y34388D01*
X32446Y33806D01*
X33354Y33282D01*
X34293Y32818D01*
X35261Y32417D01*
X36253Y32081D01*
X37265Y31810D01*
X38292Y31605D01*
X39331Y31469D01*
X40376Y31400D01*
X41424Y31400D01*
X42469Y31469D01*
X43508Y31605D01*
X44535Y31810D01*
X45547Y32081D01*
X46539Y32417D01*
X47507Y32818D01*
X48446Y33282D01*
X49354Y33806D01*
X50225Y34388D01*
X51056Y35025D01*
X51843Y35716D01*
X52584Y36457D01*
X53275Y37244D01*
X53913Y38075D01*
X54495Y38946D01*
X55018Y39854D01*
X55482Y40793D01*
X55883Y41761D01*
X56219Y42753D01*
X56490Y43765D01*
X56695Y44792D01*
X56832Y45831D01*
X56900Y46876D01*
X56900Y396876D02*
X56900Y397924D01*
X56832Y398969D01*
X56695Y400008D01*
X56490Y401035D01*
X56219Y402047D01*
X55883Y403039D01*
X55482Y404007D01*
X55018Y404946D01*
X54495Y405854D01*
X53913Y406725D01*
X53275Y407556D01*
X52584Y408343D01*
X51843Y409084D01*
X51056Y409775D01*
X50225Y410413D01*
X49354Y410995D01*
X48446Y411518D01*
X47507Y411982D01*
X46539Y412383D01*
X45547Y412719D01*
X44535Y412990D01*
X43508Y413195D01*
X42469Y413332D01*
X41424Y413400D01*
X40376Y413400D01*
X39331Y413332D01*
X38292Y413195D01*
X37265Y412990D01*
X36253Y412719D01*
X35261Y412383D01*
X34293Y411982D01*
X33354Y411518D01*
X32446Y410995D01*
X31575Y410413D01*
X30744Y409775D01*
X29957Y409084D01*
X29216Y408343D01*
X28525Y407556D01*
X27888Y406725D01*
X27306Y405854D01*
X26782Y404946D01*
X26318Y404007D01*
X25917Y403039D01*
X25581Y402047D01*
X25310Y401035D01*
X25105Y400008D01*
X24969Y398969D01*
X24900Y397924D01*
X24900Y396876D01*
X24969Y395831D01*
X25105Y394792D01*
X25310Y393765D01*
X25581Y392753D01*
X25917Y391761D01*
X26318Y390793D01*
X26782Y389854D01*
X27306Y388946D01*
X27888Y388075D01*
X28525Y387244D01*
X29216Y386457D01*
X29957Y385716D01*
X30744Y385025D01*
X31575Y384388D01*
X32446Y383806D01*
X33354Y383282D01*
X34293Y382818D01*
X35261Y382417D01*
X36253Y382081D01*
X37265Y381810D01*
X38292Y381605D01*
X39331Y381469D01*
X40376Y381400D01*
X41424Y381400D01*
X42469Y381469D01*
X43508Y381605D01*
X44535Y381810D01*
X45547Y382081D01*
X46539Y382417D01*
X47507Y382818D01*
X48446Y383282D01*
X49354Y383806D01*
X50225Y384388D01*
X51056Y385025D01*
X51843Y385716D01*
X52584Y386457D01*
X53275Y387244D01*
X53913Y388075D01*
X54495Y388946D01*
X55018Y389854D01*
X55482Y390793D01*
X55883Y391761D01*
X56219Y392753D01*
X56490Y393765D01*
X56695Y394792D01*
X56832Y395831D01*
X56900Y396876D01*
X406900Y46876D02*
X406900Y47924D01*
X406832Y48969D01*
X406695Y50008D01*
X406490Y51035D01*
X406219Y52047D01*
X405883Y53039D01*
X405482Y54007D01*
X405018Y54946D01*
X404495Y55854D01*
X403913Y56725D01*
X403275Y57556D01*
X402584Y58343D01*
X401843Y59084D01*
X401056Y59775D01*
X400225Y60413D01*
X399354Y60995D01*
X398446Y61518D01*
X397507Y61982D01*
X396539Y62383D01*
X395547Y62719D01*
X394535Y62990D01*
X393508Y63195D01*
X392469Y63332D01*
X391424Y63400D01*
X390376Y63400D01*
X389331Y63332D01*
X388292Y63195D01*
X387265Y62990D01*
X386253Y62719D01*
X385261Y62383D01*
X384293Y61982D01*
X383354Y61518D01*
X382446Y60995D01*
X381575Y60413D01*
X380744Y59775D01*
X379957Y59084D01*
X379216Y58343D01*
X378525Y57556D01*
X377888Y56725D01*
X377306Y55854D01*
X376782Y54946D01*
X376318Y54007D01*
X375917Y53039D01*
X375581Y52047D01*
X375310Y51035D01*
X375105Y50008D01*
X374969Y48969D01*
X374900Y47924D01*
X374900Y46876D01*
X374969Y45831D01*
X375105Y44792D01*
X375310Y43765D01*
X375581Y42753D01*
X375917Y41761D01*
X376318Y40793D01*
X376782Y39854D01*
X377306Y38946D01*
X377888Y38075D01*
X378525Y37244D01*
X379216Y36457D01*
X379957Y35716D01*
X380744Y35025D01*
X381575Y34388D01*
X382446Y33806D01*
X383354Y33282D01*
X384293Y32818D01*
X385261Y32417D01*
X386253Y32081D01*
X387265Y31810D01*
X388292Y31605D01*
X389331Y31469D01*
X390376Y31400D01*
X391424Y31400D01*
X392469Y31469D01*
X393508Y31605D01*
X394535Y31810D01*
X395547Y32081D01*
X396539Y32417D01*
X397507Y32818D01*
X398446Y33282D01*
X399354Y33806D01*
X400225Y34388D01*
X401056Y35025D01*
X401843Y35716D01*
X402584Y36457D01*
X403275Y37244D01*
X403913Y38075D01*
X404495Y38946D01*
X405018Y39854D01*
X405482Y40793D01*
X405883Y41761D01*
X406219Y42753D01*
X406490Y43765D01*
X406695Y44792D01*
X406832Y45831D01*
X406900Y46876D01*
X406900Y396876D02*
X406900Y397924D01*
X406832Y398969D01*
X406695Y400008D01*
X406490Y401035D01*
X406219Y402047D01*
X405883Y403039D01*
X405482Y404007D01*
X405018Y404946D01*
X404495Y405854D01*
X403913Y406725D01*
X403275Y407556D01*
X402584Y408343D01*
X401843Y409084D01*
X401056Y409775D01*
X400225Y410413D01*
X399354Y410995D01*
X398446Y411518D01*
X397507Y411982D01*
X396539Y412383D01*
X395547Y412719D01*
X394535Y412990D01*
X393508Y413195D01*
X392469Y413332D01*
X391424Y413400D01*
X390376Y413400D01*
X389331Y413332D01*
X388292Y413195D01*
X387265Y412990D01*
X386253Y412719D01*
X385261Y412383D01*
X384293Y411982D01*
X383354Y411518D01*
X382446Y410995D01*
X381575Y410413D01*
X380744Y409775D01*
X379957Y409084D01*
X379216Y408343D01*
X378525Y407556D01*
X377888Y406725D01*
X377306Y405854D01*
X376782Y404946D01*
X376318Y404007D01*
X375917Y403039D01*
X375581Y402047D01*
X375310Y401035D01*
X375105Y400008D01*
X374969Y398969D01*
X374900Y397924D01*
X374900Y396876D01*
X374969Y395831D01*
X375105Y394792D01*
X375310Y393765D01*
X375581Y392753D01*
X375917Y391761D01*
X376318Y390793D01*
X376782Y389854D01*
X377306Y388946D01*
X377888Y388075D01*
X378525Y387244D01*
X379216Y386457D01*
X379957Y385716D01*
X380744Y385025D01*
X381575Y384388D01*
X382446Y383806D01*
X383354Y383282D01*
X384293Y382818D01*
X385261Y382417D01*
X386253Y382081D01*
X387265Y381810D01*
X388292Y381605D01*
X389331Y381469D01*
X390376Y381400D01*
X391424Y381400D01*
X392469Y381469D01*
X393508Y381605D01*
X394535Y381810D01*
X395547Y382081D01*
X396539Y382417D01*
X397507Y382818D01*
X398446Y383282D01*
X399354Y383806D01*
X400225Y384388D01*
X401056Y385025D01*
X401843Y385716D01*
X402584Y386457D01*
X403275Y387244D01*
X403913Y388075D01*
X404495Y388946D01*
X405018Y389854D01*
X405482Y390793D01*
X405883Y391761D01*
X406219Y392753D01*
X406490Y393765D01*
X406695Y394792D01*
X406832Y395831D01*
X406900Y396876D01*
M02*
